<?xml version="1.0" encoding="utf-8"?>
<!-- Generator: Adobe Illustrator 19.2.1, SVG Export Plug-In . SVG Version: 6.00 Build 0)  -->
<svg version="1.1" id="Layer_1" xmlns="http://www.w3.org/2000/svg" xmlns:xlink="http://www.w3.org/1999/xlink" x="0px" y="0px"
	 viewBox="0 0 240 240" style="enable-background:new 0 0 240 240;" xml:space="preserve">
<g>
	<path d="M29.7,93.2c-2.7,0-4.8,2.2-4.8,4.8v112.4c0,2.7,2.2,4.8,4.8,4.8h21.8c2.7,0,4.8-2.2,4.8-4.8V98c0-2.7-2.2-4.8-4.8-4.8H29.7
		z M46.7,205.6H34.5V102.8h12.2V205.6z"/>
	<path d="M83.9,93.2c-2.7,0-4.8,2.2-4.8,4.8v112.4c0,2.7,2.2,4.8,4.8,4.8h21.8c2.7,0,4.8-2.2,4.8-4.8V98c0-2.7-2.2-4.8-4.8-4.8H83.9
		z M100.9,205.6H88.7V102.8h12.2V205.6z"/>
	<path d="M137.2,93.2c-2.7,0-4.8,2.2-4.8,4.8v112.4c0,2.7,2.2,4.8,4.8,4.8H159c2.7,0,4.8-2.2,4.8-4.8V98c0-2.7-2.2-4.8-4.8-4.8
		H137.2z M154.2,205.6H142V102.8h12.2V205.6z"/>
	<path d="M191.8,93.2c-2.7,0-4.8,2.2-4.8,4.8v112.4c0,2.7,2.2,4.8,4.8,4.8h21.8c2.7,0,4.8-2.2,4.8-4.8V98c0-2.7-2.2-4.8-4.8-4.8
		H191.8z M208.8,205.6h-12.2V102.8h12.2V205.6z"/>
	<path d="M5.9,75.8H234c0,0,0.1,0,0.1,0c2.7,0,4.8-2.2,4.8-4.8c0-2-1.2-3.8-3-4.5L122.5,0.7c-1.5-0.9-3.3-0.9-4.8,0L3.5,66.8
		c-1.9,1.1-2.8,3.3-2.2,5.4S3.7,75.8,5.9,75.8z M120.1,10.4l96.1,55.8H23.8L120.1,10.4z"/>
	<path d="M234,230.4H5.9c-2.7,0-4.8,2.2-4.8,4.8c0,2.7,2.2,4.8,4.8,4.8H234c2.7,0,4.8-2.2,4.8-4.8
		C238.8,232.5,236.6,230.4,234,230.4z"/>
	<path d="M120,24.2c-9.8,0-17.8,8-17.8,17.8c0,9.8,8,17.8,17.8,17.8c9.8,0,17.8-8,17.8-17.8C137.7,32.2,129.8,24.2,120,24.2z
		 M120,50.2c-4.5,0-8.1-3.7-8.1-8.1s3.7-8.1,8.1-8.1c4.5,0,8.1,3.7,8.1,8.1S124.4,50.2,120,50.2z"/>
</g>
</svg>
