<?xml version="1.0" encoding="utf-8"?>
<!-- Generator: Adobe Illustrator 19.2.1, SVG Export Plug-In . SVG Version: 6.00 Build 0)  -->
<svg version="1.1" id="Layer_1" xmlns="http://www.w3.org/2000/svg" xmlns:xlink="http://www.w3.org/1999/xlink" x="0px" y="0px"
	 viewBox="0 0 240 240" style="enable-background:new 0 0 240 240;" xml:space="preserve">
<path d="M160.4,104.2c-1.2,0-2.3,0-3.5,0.1v-1.3v-28v-6.2v-28v-7.8C156.9,11.5,117.1,0,79.6,0C42.2,0,2.4,11.5,2.4,32.9v7.8v28v6.2
	v28v6.2v28v6.2v13.2v14.9c0,21.4,39.8,32.9,77.2,32.9c1.2,0,2.3,0,3.5-0.1v2.9c0,21.4,39.8,32.9,77.2,32.9
	c37.4,0,77.2-11.5,77.2-32.9v-28v-6.2v-28v-7.8C237.6,115.7,197.8,104.2,160.4,104.2z M92.8,207.1v-17.7c1.9,1.4,4,2.8,6.4,4
	c2.6,1.4,5.3,2.7,8.3,3.8c3,1.1,6.2,2.1,9.5,3c13,3.6,28.4,5.5,43.4,5.5c26.2,0,53.4-5.7,67.5-16.3v17.7c0,10.9-28.9,23.2-67.5,23.2
	C121.7,230.3,92.8,218,92.8,207.1z M147.2,32.9c0,1-0.3,1.9-0.7,2.9c-0.7,1.6-2,3.3-3.9,4.9c-2,1.7-4.5,3.3-7.6,4.9
	c-12,6-31.8,10.6-55.3,10.6c-23.5,0-43.4-4.5-55.3-10.6c-3.1-1.5-5.6-3.2-7.6-4.9c-1.9-1.6-3.1-3.2-3.9-4.9c-0.4-1-0.7-1.9-0.7-2.9
	C12.1,22,41,9.7,79.6,9.7C118.3,9.7,147.2,22,147.2,32.9z M227.9,172.9c0,0.4-0.1,0.9-0.2,1.3c-0.3,1.6-1.2,3.3-2.7,4.9
	c-1.5,1.7-3.7,3.3-6.4,4.9c-11.5,6.8-32.7,12.1-58.2,12.1c-8.7,0-16.9-0.6-24.4-1.7c-3.2-0.5-6.3-1-9.3-1.6
	c-3.3-0.7-6.5-1.5-9.4-2.4c-6.1-1.8-11.1-4-15.1-6.3c-2.7-1.6-4.8-3.2-6.4-4.9c-1.5-1.6-2.4-3.2-2.7-4.9c-0.1-0.4-0.2-0.9-0.2-1.3
	v-19.2c2.5,1.9,5.5,3.7,8.8,5.3c2.7,1.3,5.7,2.5,8.8,3.6c3.1,1.1,6.3,2,9.7,2.9c8.4,2.1,17.6,3.5,27,4.1c1.6,0.1,3.2,0.2,4.9,0.3
	c1.6,0.1,3.2,0.1,4.9,0.1c1.2,0,2.3,0.1,3.5,0.1c26.2,0,53.4-5.7,67.5-16.3V172.9z M15,143.3c-1.5-1.6-2.4-3.2-2.7-4.9
	c-0.1-0.4-0.2-0.9-0.2-1.3v-17.7c14.1,10.7,41.3,16.3,67.5,16.3c1.2,0,2.4,0,3.7-0.1c0,0.4-0.2,0.9-0.2,1.3v1.4v4.9v1.5v3.4v12.1
	c-1.2,0-2.3,0.1-3.5,0.1c-25.5,0-46.7-5.3-58.2-12.1C18.8,146.6,16.6,145,15,143.3z M79.6,65.8c26.2,0,53.4-5.7,67.5-16.3v19.2
	c0,0.4-0.1,0.9-0.2,1.3c-0.3,1.6-1.2,3.3-2.7,4.9c-1.5,1.7-3.7,3.3-6.4,4.9c-11.5,6.8-32.7,12.1-58.2,12.1
	c-25.5,0-46.7-5.3-58.2-12.1c-2.7-1.6-4.9-3.2-6.4-4.9c-1.5-1.6-2.4-3.2-2.7-4.9c-0.1-0.4-0.2-0.9-0.2-1.3V49.5
	C26.2,60.1,53.5,65.8,79.6,65.8z M79.6,101.6c26.2,0,53.4-5.6,67.5-16.3v17.7c0,0.4-0.1,0.9-0.2,1.3c0,0.1,0,0.3-0.1,0.4
	c-9.8,0.7-19.3,2.2-28,4.4c-5.2,1.3-10.1,3-14.4,4.9c-7.5,3.2-13.6,7.2-17.3,12c-2.5,0.1-5,0.2-7.6,0.2c-25.5,0-46.7-5.3-58.2-12.1
	c-2.7-1.6-4.8-3.2-6.4-4.9c-1.5-1.6-2.4-3.2-2.7-4.9c-0.1-0.4-0.2-0.9-0.2-1.3V85.3C26.2,95.9,53.5,101.6,79.6,101.6z M227.2,140
	c-0.7,1.6-2,3.3-3.9,4.9c-2,1.7-4.5,3.3-7.6,4.9c-12,6-31.8,10.6-55.3,10.6c-1.2,0-2.3,0-3.5-0.1c-1.6,0-3.3-0.1-4.9-0.1
	c-1.6-0.1-3.3-0.2-4.9-0.3c-2.9-0.2-5.8-0.5-8.6-0.9c-3.1-0.4-6.2-0.9-9.1-1.4c-3.3-0.6-6.4-1.4-9.4-2.2c-5.9-1.6-11-3.5-15.1-5.6
	c-1-0.5-1.9-1-2.7-1.5c-1.9-1.1-3.5-2.2-4.8-3.4c-0.6-0.5-1.1-1-1.6-1.5c-1-1.1-1.8-2.2-2.3-3.4c-0.2-0.5-0.4-1-0.5-1.5
	c-0.1-0.5-0.2-0.9-0.2-1.4c0-0.6,0.1-1.2,0.3-1.8c0.5-1.7,1.6-3.5,3.4-5.2c2.2-2.1,5.3-4.1,9.2-6c7.2-3.5,16.9-6.4,28.6-8.3
	c3.6-0.6,7.3-1,11.2-1.3c0.6,0,1.1-0.1,1.7-0.1c1.6-0.1,8.4-0.4,9.7-0.4c1.2,0,2.3-0.1,3.5-0.1c38.6,0,67.5,12.2,67.5,23.2
	C227.9,138,227.6,139,227.2,140z M12.1,156.5v-2.8c14.1,10.7,41.3,16.3,67.5,16.3c1.2,0,2.3,0,3.5-0.1v2.9v6.2v15.4
	c-1.2,0-2.3,0.1-3.5,0.1c-38.6,0-67.5-12.2-67.5-23.2V156.5z"/>
</svg>
