<?xml version="1.0" encoding="utf-8"?>
<!-- Generator: Adobe Illustrator 19.2.1, SVG Export Plug-In . SVG Version: 6.00 Build 0)  -->
<svg version="1.1" id="Layer_1" xmlns="http://www.w3.org/2000/svg" xmlns:xlink="http://www.w3.org/1999/xlink" x="0px" y="0px"
	 viewBox="0 0 240 240" style="enable-background:new 0 0 240 240;" xml:space="preserve">
<g>
	<path d="M239.6,87.8c-1.5-7.8-6.6-13.3-13.3-14.5c-37.3-6.2-55.8-16.8-70.6-41.6c-1.2-2-3.3-2.8-5.6-2.8H90c-2.3,0-4.5,0.8-5.6,2.8
		C69.5,56.6,51,67.4,13.7,73.6C7,74.7,2,80.1,0.5,87.9c-2.1,10.7,2.8,26.9,22.2,40.2l0.8,0.4v20.3l-1,0.5c-2,1.2-3.3,3.3-3.3,5.7
		c0,15.1,11.3,29.9,31,40.6c19,10.3,43.8,16,69.8,16s50.7-5.7,69.8-16c19.7-10.7,31.1-25.5,31.1-40.6c0-2.3-1.4-4.5-3.4-5.7l-1-0.5
		v-20.3l0.9-0.5C236.8,114.8,241.6,98.6,239.6,87.8z M205.5,164.2c-8.1,16.7-40.9,34.4-85.5,34.4S42.7,181,34.5,164.3l-1.2-2.3
		h173.3L205.5,164.2z M37.5,150v-18h167v18H37.5z M208.7,117.9l-0.4,0.1H31.7l-0.4-0.1c-17.1-11.2-18.2-22.4-18.1-25.6
		c0.1-3.1,1.1-5.1,2.1-5.8l0.7-0.2C55,79.8,76.7,67.7,93.1,42.4l0.5-0.4h52.8l0.5,0.4C163.4,67.7,185,80,224.1,86.5l0.7,0.2
		c1,0.7,2.1,2.6,2.1,5.7C226.9,95.6,225.8,106.8,208.7,117.9z"/>
	<path d="M120,63.5c-11.1,0-20.2,9.1-20.2,20.2c0,11.1,9.1,20.2,20.2,20.2s20.2-9.1,20.2-20.2C140.2,72.6,131.1,63.5,120,63.5z
		 M120,90.7c-3.9,0-7-3.2-7-7c0-3.9,3.2-7,7-7s7,3.2,7,7C127,87.6,123.9,90.7,120,90.7z"/>
</g>
</svg>
