<?xml version="1.0" encoding="utf-8"?>
<!-- Generator: Adobe Illustrator 19.2.1, SVG Export Plug-In . SVG Version: 6.00 Build 0)  -->
<svg version="1.1" id="Layer_1" xmlns="http://www.w3.org/2000/svg" xmlns:xlink="http://www.w3.org/1999/xlink" x="0px" y="0px"
	 viewBox="0 0 240 240" style="enable-background:new 0 0 240 240;" xml:space="preserve">
<g>
	<path d="M146,134.7h54.6c2.2,0,3.9-1.8,3.9-3.9V95.7c0-2.2-1.8-3.9-3.9-3.9h-23.4V63h16.1c2.2,0,3.9-1.8,3.9-3.9v-18
		c0-2.2-1.8-3.9-3.9-3.9c-2.2,0-3.9,1.8-3.9,3.9v14.1H7.8V45h145.4c2.2,0,3.9-1.8,3.9-3.9c0-2.2-1.8-3.9-3.9-3.9H71.7V21
		c0-2.2-1.8-3.9-3.9-3.9h-33c-2.2,0-3.9,1.8-3.9,3.9s1.8,3.9,3.9,3.9h29.1v12.3h-60c-2.2,0-3.9,1.8-3.9,3.9v18C0,61.2,1.8,63,3.9,63
		h27v125l-0.7,0.2c-6.1,2.1-10.3,7.8-10.3,14.3V219c0,2.2,1.8,3.9,3.9,3.9h55.2c2.2,0,3.9-1.8,3.9-3.9v-16.4
		c0-6.6-4.2-12.4-10.5-14.4l-0.7-0.2V63h97.6v28.8H146c-2.2,0-3.9,1.8-3.9,3.9v35.1C142,132.9,143.8,134.7,146,134.7z M38.8,63.3
		h25.2v25.2H44.3L56,76.8c0.7-0.7,1.1-1.7,1.1-2.8c0-1-0.4-2-1.1-2.8c-1.5-1.5-4-1.5-5.5,0L38.8,82.9V63.3z M52.9,140.3
		c-1.5-1.5-4.1-1.5-5.5,0l-8.6,8.6v-19.7h25.2v25.2H44.3l8.6-8.6C54.4,144.3,54.4,141.8,52.9,140.3z M44.3,121.5l19.7-19.7v19.7
		H44.3z M38.8,96.3h19.7l-19.7,19.7V96.3z M38.8,162.3h19.7l-19.7,19.7V162.3z M63.9,167.8v19.7H44.3L63.9,167.8z M75.2,202.6v12.5
		H27.8v-12.5c0-4,3.3-7.3,7.3-7.3h32.7C71.9,195.3,75.2,198.5,75.2,202.6z M149.9,99.6h46.8v27.3h-46.8V99.6z"/>
	<path d="M240,219v-55.2c0-2.2-1.8-3.9-3.9-3.9h-55.2c-2.2,0-3.9,1.8-3.9,3.9v23.7h-23.7c-2.2,0-3.9,1.8-3.9,3.9V219
		c0,2.2,1.8,3.9,3.9,3.9h82.9C238.2,222.9,240,221.1,240,219z M176.9,215.1h-19.8v-19.8h19.8V215.1z M204.6,215.1h-19.8v-19.8h19.8
		V215.1z M204.6,187.4h-19.8v-19.8h19.8V187.4z M232.2,215.1h-19.8v-19.8h19.8V215.1z M232.2,187.4h-19.8v-19.8h19.8V187.4z"/>
</g>
</svg>
