<?xml version="1.0" encoding="utf-8"?>
<!-- Generator: Adobe Illustrator 19.2.1, SVG Export Plug-In . SVG Version: 6.00 Build 0)  -->
<svg version="1.1" id="Layer_1" xmlns="http://www.w3.org/2000/svg" xmlns:xlink="http://www.w3.org/1999/xlink" x="0px" y="0px"
	 viewBox="0 0 240 240" style="enable-background:new 0 0 240 240;" xml:space="preserve">
<g>
	<path d="M26.5,164.1v-24.9c0-2.7-2.2-4.9-4.9-4.9c-2.7,0-4.9,2.2-4.9,4.9v24.9c-4.7,0.9-8.3,4.9-8.5,9.8l-2.6,14.9l-0.1,0.8
		c0,5.8,4.7,10.5,10.5,10.5h11.1c5.8,0,10.5-4.7,10.5-10.5L35,173.9C34.8,169,31.2,165,26.5,164.1z M27.2,190.4H16.1
		c-0.3,0-0.6-0.2-0.7-0.5l2.5-14.6l0.1-0.8c0-0.4,0.3-0.7,0.7-0.7h5.8c0.4,0,0.7,0.3,0.7,0.7l2.6,15.5
		C27.8,190.2,27.5,190.4,27.2,190.4z"/>
	<path d="M239.2,115.6l-30.6-72.8c-0.8-1.8-2.5-3-4.5-3H43.2c-1.8,0-3.5,1-4.3,2.6L0.6,116c-0.8,1.5-0.7,3.3,0.2,4.8
		c0.9,1.5,2.5,2.4,4.2,2.4h62.3l-12.3,49.6c-0.1,0.4-0.1,0.8-0.1,1.2c0,19.1,33.9,25.9,65.6,25.9c31.7,0,65.6-6.8,65.6-25.9
		c0-0.4,0-0.8-0.1-1.2l-12.3-49.6H235c0,0,0.1,0,0.1,0c2.7,0,4.9-2.2,4.9-4.9C240,117.3,239.7,116.4,239.2,115.6z M176.1,174.5
		c-0.8,7.8-21.6,15.6-55.8,15.6c-34.2,0-54.9-7.9-55.8-15.6l12.7-51.3h86.1L176.1,174.5z M12.9,113.4l15.8-30.2h88.1
		c2.7,0,4.9-2.2,4.9-4.9s-2.2-4.9-4.9-4.9h-83l12.4-23.8h154.6l26.9,63.8H12.9z"/>
</g>
</svg>
