<?xml version="1.0" encoding="utf-8"?>
<!-- Generator: Adobe Illustrator 19.2.1, SVG Export Plug-In . SVG Version: 6.00 Build 0)  -->
<svg version="1.1" id="Layer_1" xmlns="http://www.w3.org/2000/svg" xmlns:xlink="http://www.w3.org/1999/xlink" x="0px" y="0px"
	 viewBox="0 0 240 240" style="enable-background:new 0 0 240 240;" xml:space="preserve">
<path d="M236.8,58.1c-0.6-0.2-5.8-2-16.8-2c-15.8,0-42.4,3.7-82.8,20.1c15.6-14.8,45.1-35.2,91.1-37.7c2.7-0.1,4.7-2.4,4.6-5.1
	c-0.1-2.7-2.5-4.7-5.1-4.6c-46.6,2.5-77.2,21.9-94.5,37.5C144,47.9,167.5,23.5,218.7,12c2.6-0.6,4.3-3.2,3.7-5.8
	c-0.6-2.6-3.2-4.3-5.8-3.7C153,16.8,129,50.4,120,71.1c-9-20.7-33-54.2-96.5-68.5c-2.6-0.6-5.2,1-5.8,3.7c-0.6,2.6,1.1,5.2,3.7,5.8
	C72.5,23.5,96,47.9,106.8,66.3c-17.3-15.6-47.8-35-94.5-37.5c-2.7-0.1-5,1.9-5.1,4.6c-0.1,2.7,1.9,5,4.6,5.1
	c46,2.5,75.5,22.9,91.1,37.7C62.3,59.8,35.7,56,19.9,56c-11,0-16.2,1.8-16.8,2c-2.1,0.8-3.3,2.8-3.1,5l13,138.8
	c0.2,2.5,2.3,4.4,4.8,4.4c0,0,0.1,0,0.1,0l2.2,0c46.8,0,86.7,23.6,95.5,29.2c0.4,0.6,1,1.2,1.7,1.5c0.7,0.4,1.5,0.6,2.3,0.6
	c0.1,0,0.2,0,0.4-0.1c0.1,0,0.2,0.1,0.3,0.1c0.8,0,1.5-0.2,2.2-0.6c0.7-0.4,1.3-0.9,1.7-1.5c8.8-5.6,48.6-29.2,95.5-29.2l2.3,0
	c0,0,0.1,0,0.1,0c2.5,0,4.6-1.9,4.8-4.4l13-138.8C240.2,60.9,238.9,58.8,236.8,58.1z M10.1,66.4c2.2-0.3,5.5-0.7,9.9-0.7
	c16.8,0,46.9,4.6,94.9,26v131.8c-15.5-9-50.8-26.4-92.5-27L10.1,66.4z M217.7,196.6c-41.7,0.6-77.1,18-92.5,27V91.8
	c48-21.4,78-26,94.9-26c4.4,0,7.7,0.3,9.9,0.7L217.7,196.6z"/>
</svg>
