<?xml version="1.0" encoding="utf-8"?>
<!-- Generator: Adobe Illustrator 19.2.1, SVG Export Plug-In . SVG Version: 6.00 Build 0)  -->
<svg version="1.1" id="Layer_1" xmlns="http://www.w3.org/2000/svg" xmlns:xlink="http://www.w3.org/1999/xlink" x="0px" y="0px"
	 viewBox="0 0 240 240" style="enable-background:new 0 0 240 240;" xml:space="preserve">
<style type="text/css">
	.st0{fill:#010002;}
</style>
<g>
	<path class="st0" d="M92,55.1c12.8,0,23.2-12.4,23.2-27.6S104.8,0,92,0S68.8,12.4,68.8,27.6S79.2,55.1,92,55.1z M92,7.7
		c8.6,0,15.5,8.9,15.5,19.9s-7,19.9-15.5,19.9c-8.6,0-15.5-8.9-15.5-19.9S83.5,7.7,92,7.7z"/>
	<path class="st0" d="M150.5,66.1c12.8,0,23.2-12.4,23.2-27.6S163.3,11,150.5,11c-12.8,0-23.2,12.4-23.2,27.6S137.6,66.1,150.5,66.1
		z M150.5,18.7c8.6,0,15.5,8.9,15.5,19.9s-7,19.9-15.5,19.9c-8.6,0-15.5-8.9-15.5-19.9S141.9,18.7,150.5,18.7z"/>
	<path class="st0" d="M196.1,91.9c-1.2-10.9-8.2-13-15.7-15.3c-6.2-1.9-15.2-3.2-26.5-3.8c-0.4-0.1-0.7-0.2-1.1-0.1
		c-0.2,0-0.5,0-0.7,0c-0.2,0-0.4,0-0.6,0c-0.4,0-0.7,0-1.1,0.1c-3.9,0.2-8.2,0.5-12.5,1c-3.1-5-8.6-6.5-14.5-8.2
		c-9-2.5-21.9-3.5-31.2-4c-0.1,0-0.1,0-0.2,0c-0.1,0-0.1,0-0.2,0c-9.3,0.4-22.2,1.4-31.2,4c-8,2.2-15.5,4.4-16.8,15.3
		c-0.7,5.9-0.2,28.8,0.9,42.2l0.3,3.8c1,12.5,1.6,20.7,6.2,25.5c4,4.2,8.8,5.4,12.9,6.2c2.6,22.8,5.5,48.4,8.8,69.7
		c0.3,10.7,12.7,11.4,18.8,11.7l0,0c0.1,0,0.1,0,0.2,0c0.1,0,0.2,0,0.3,0l0.3,0c4.1-0.3,10.3-0.7,14.7-3.5c2.4,2.8,7,3.2,10.2,3.2
		c0.7,0,1.3,0,1.8,0c0.6,0,1.3,0,2,0c3.4,0,7.9-0.4,10.2-3.4c3,2.3,7.4,3.8,16.1,3.8c0.3,0,0.6,0,0.9,0l0.4,0
		c7.1-0.1,17.8-0.2,19.9-9.2c0-0.1,0-0.2,0.1-0.3c3-18.6,5.7-40.8,8-60.9c3.8-0.8,8.4-2,12.3-6.4c4.2-4.8,4.8-13,5.8-25.4l0.3-3.8
		C196.3,120.6,196.8,97.7,196.1,91.9z M119.5,231.9c0,0-0.1,0-0.1,0c0,0-0.1,0-0.1,0c-3.9,0.1-5.3-0.2-5.9-0.4
		c-2.1-9.2-3.9-20.3-5.5-30.2c-0.7-4.1-1.3-8-1.9-11.6c-0.4-2.1-2.3-3.5-4.4-3.1c-2.1,0.3-3.5,2.3-3.2,4.4l1,6.7
		c-0.6-0.2-1.2-0.5-1.7-0.9c-1-0.8-1.4-4.5-1.8-8.4l-0.2-1.8c-0.7-6.6-0.9-16.8-0.6-18.7c0.2-1,0.5-1.4,5.9-2.5
		c4.1-0.9,10.5-1.5,18.5-1.7c8,0.3,14.4,0.9,18.5,1.7c5.4,1.1,5.8,1.5,5.9,2.5c0.3,1.9,0.1,12.1-0.6,18.7l-0.2,1.8
		c-0.4,3.9-0.8,7.6-1.8,8.4c-0.5,0.4-1,0.7-1.7,0.9l1-6.7c0.3-2.1-1.1-4-3.2-4.4c-2.1-0.3-4,1-4.4,3.1c-0.7,3.6-1.3,7.5-2,11.6
		c-1.7,9.8-3.6,21-5.7,30.2C124.8,231.7,123.3,232,119.5,231.9z M187.6,133.4l-0.3,3.8c-0.8,10.5-1.3,18-3.8,20.9
		c-1.5,1.7-3.3,2.6-5.3,3.2l2.1-20.1c0.2-2.1-1.3-4-3.4-4.2c-2.1-0.2-4,1.2-4.3,3.3c-0.9,7.6-1.9,15.8-2.9,24.3
		c-2.5,21-5.3,44.8-8.4,64.4c-0.9,3.1-7.6,3.1-12.5,3.2l-0.4,0c-10.5,0.1-12.2-1.8-14.3-4.3c0,0-0.1-0.1-0.1-0.1
		c1.5-7.1,2.8-14.8,4.1-22c2.5-0.4,5.4-1.1,7.9-3.1c3.6-2.8,4.1-7.4,4.8-13.6l0.2-1.8c0.7-6.1,1.1-17.5,0.6-20.7
		c-1-6.6-6.6-7.8-11.9-8.9c-4.6-1-11.3-1.6-20-1.9c0,0-0.1,0-0.1,0c0,0-0.1,0-0.1,0c-8.6,0.3-15.4,0.9-20,1.9
		c-5.4,1.1-10.9,2.3-11.9,8.9c-0.5,3.3-0.1,14.6,0.6,20.7l0.2,1.8c0.7,6.3,1.1,10.8,4.8,13.6c2.5,2,5.3,2.7,7.8,3.1
		c1.2,7.1,2.4,14.7,3.8,21.7c-0.5,3.3-4.9,4.2-12.6,4.7l-0.1,0c-8.4-0.4-11.3-1.5-11.3-4.4c0-0.2,0-0.4,0-0.6
		c-3.4-21.6-6.3-47.9-9-71.1c-1.1-9.4-2.1-18.5-3.1-26.8c-0.3-2.1-2.2-3.6-4.3-3.4c-2.1,0.2-3.6,2.2-3.4,4.3l2.3,20.2
		c-2.4-0.6-4.6-1.6-6.4-3.5c-2.7-2.8-3.3-10.4-4.1-20.8l-0.3-3.8c-1.1-13.8-1.5-35.7-0.9-40.7c0.6-5.3,2.5-6.3,11.2-8.8
		c6.5-1.8,16.6-3.1,29.3-3.7c12.7,0.6,22.8,1.8,29.3,3.7c2.9,0.8,5,1.5,6.6,2.2c-2.2,0.4-4.4,0.9-6.3,1.4c-8,2.2-15.5,4.4-16.8,15.3
		c-0.3,2.6-0.3,7.9-0.3,12.2c-5,5.1-8.3,12.6-8.3,21c0,15.2,10.4,27.6,23.2,27.6s23.2-12.4,23.2-27.6s-10.4-27.6-23.2-27.6
		c-2.5,0-5,0.5-7.3,1.4c0-2.9,0.1-5.1,0.2-6.2c0.6-5.3,2.5-6.3,11.2-8.7c6.3-1.8,16.2-3,28.4-3.6c11.3,0.6,20.3,1.8,26.1,3.6
		c7.5,2.3,9.7,3.2,10.3,8.7C189,97.7,188.7,119.6,187.6,133.4z M119.5,105.2c8.6,0,15.5,8.9,15.5,19.9c0,11-7,19.9-15.5,19.9
		c-8.6,0-15.5-8.9-15.5-19.9S111,105.2,119.5,105.2z"/>
</g>
</svg>
