<?xml version="1.0" encoding="utf-8"?>
<!-- Generator: Adobe Illustrator 19.2.1, SVG Export Plug-In . SVG Version: 6.00 Build 0)  -->
<svg version="1.1" id="Layer_1" xmlns="http://www.w3.org/2000/svg" xmlns:xlink="http://www.w3.org/1999/xlink" x="0px" y="0px"
	 viewBox="0 0 240 240" style="enable-background:new 0 0 240 240;" xml:space="preserve">
<g>
	<path d="M235.2,226.9H118.5v-67.5c0.5-2.9,5.4-32.2,22-42.3c6.5-4,13.8-4.4,22.5-1.5c2.5,0.9,5.3-0.5,6.1-3c0.9-2.5-0.5-5.3-3-6.1
		c-11.4-3.9-21.7-3.1-30.7,2.4c-7.5,4.6-12.9,11.9-16.9,19.6V62.7c0-2.7-2.2-4.8-4.8-4.8s-4.8,2.2-4.8,4.8v61.8
		c-5-6.5-11.7-13-19.4-14.3c-4.3-0.8-10.9-0.2-17.5,6.5c-1.9,1.9-1.8,5,0.1,6.8c1.9,1.9,5,1.8,6.8-0.1c3-3.1,5.9-4.3,8.9-3.8
		c8.9,1.6,18,16.8,21.1,23.3v83.9H4.8c-2.7,0-4.8,2.2-4.8,4.8c0,2.7,2.2,4.8,4.8,4.8h230.3c2.7,0,4.8-2.2,4.8-4.8
		C240,229,237.8,226.9,235.2,226.9z"/>
	<path d="M75.1,181c9.4,0,18.4-3.2,26-9.1c2.1-1.7,2.5-4.7,0.8-6.8c-1.6-2.1-4.7-2.5-6.8-0.8c-5.9,4.6-12.8,7.1-20,7.1
		c-19.2,0-34.9-17.5-34.9-39c0-14.1,6.9-27.1,17.9-34c1.8-1.1,2.7-3.3,2.1-5.4c-1.6-5.9-2.4-11.9-2.4-17.9c0-34.2,25-62,55.8-62
		c27.4,0,50.5,21.8,55,51.9c0.3,1.9,1.6,3.4,3.5,4c22.2,6.2,37.7,28.3,37.7,53.8c0,30.6-22.4,55.5-49.9,55.5
		c-10.1,0-19.9-3.4-28.2-9.7c-2.1-1.6-5.2-1.2-6.8,0.9c-1.6,2.1-1.2,5.2,0.9,6.8c10,7.7,21.8,11.7,34.1,11.7
		c32.9,0,59.6-29.2,59.6-65.2c0-28.6-17-53.7-41.8-62.1c-6.2-33.3-32.7-57.1-64-57.1c-36.1,0-65.4,32.1-65.4,71.6
		c0,5.7,0.6,11.5,1.9,17.1c-12.1,9-19.5,24.1-19.5,40.2C30.6,159.2,50.5,181,75.1,181z"/>
</g>
</svg>
