<?xml version="1.0" encoding="utf-8"?>
<!-- Generator: Adobe Illustrator 19.2.1, SVG Export Plug-In . SVG Version: 6.00 Build 0)  -->
<svg version="1.1" id="Layer_1" xmlns="http://www.w3.org/2000/svg" xmlns:xlink="http://www.w3.org/1999/xlink" x="0px" y="0px"
	 viewBox="0 0 240 240" style="enable-background:new 0 0 240 240;" xml:space="preserve">
<path d="M216.2,42.2c-2.9-2.2-6.9-2.9-10.4-1.9c0,0-5.2,1.4-13,1.4c-17.1,0-42-6.4-63.1-36.8C127.6,1.8,123.9,0,120,0
	c-3.9,0-7.6,1.8-9.7,4.9c-21.1,30.4-46,36.8-63.1,36.8c-7.8,0-12.9-1.4-12.9-1.4c-3.5-1.1-7.5-0.3-10.5,1.9c-3,2.2-4.7,5.8-4.7,9.5
	v65.3c0,94.3,96.8,122.4,97.8,122.6c1,0.3,2.1,0.4,3.1,0.4c1.1,0,2.1-0.1,3.1-0.4c1-0.3,97.8-28.2,97.8-122.6V51.6
	C220.9,47.9,219.1,44.4,216.2,42.2z M211.1,116.9c0,86.9-89.7,113-90.6,113.2c-0.4,0.1-0.8,0.1-1.1,0c-0.9-0.3-90.6-26.4-90.6-113.2
	V51.6c0-0.7,0.3-1.3,0.8-1.6c0.4-0.3,0.8-0.4,1.2-0.4c0.2,0,0.4,0,0.4,0c1.1,0.4,7.4,1.9,15.9,1.9c19.5,0,47.6-7.1,71.1-41
	c0.7-1,2.7-1,3.4,0c23.5,33.9,51.7,41,71.1,41c9.6,0,15.7-1.8,15.7-1.8c0.6-0.2,1.3-0.1,1.8,0.3c0.5,0.4,0.8,1,0.8,1.6V116.9z"/>
</svg>
